<?xml version="1.0" standalone="no"?>
<!DOCTYPE svg PUBLIC "-//W3C//DTD SVG 20010904//EN"
 "http://www.w3.org/TR/2001/REC-SVG-20010904/DTD/svg10.dtd">
<svg version="1.0" xmlns="http://www.w3.org/2000/svg"
 width="256.000000pt" height="256.000000pt" viewBox="0 0 256.000000 256.000000"
 preserveAspectRatio="xMidYMid meet">
<metadata>
Created by potrace 1.11, written by Peter Selinger 2001-2013
</metadata>
<g transform="translate(0.000000,256.000000) scale(0.100000,-0.100000)"
fill="#000000" stroke="none">
<path d="M853 2071 c-17 -11 -34 -17 -37 -14 -3 4 -6 -1 -6 -11 0 -9 -7 -19
-15 -22 -8 -4 -15 -12 -15 -20 0 -8 -4 -14 -8 -14 -13 0 -14 -30 -15 -361 l-2
-316 -30 -13 c-36 -15 -85 -59 -85 -76 0 -7 -6 -14 -12 -16 -16 -6 -21 -392
-6 -420 5 -11 5 -18 -1 -18 -5 0 6 -32 25 -71 58 -119 171 -209 284 -226 83
-12 681 -7 736 6 43 10 195 91 171 91 -4 0 6 14 23 31 16 17 32 40 35 50 4 11
11 17 16 13 5 -3 8 -2 7 3 -1 4 6 33 17 63 18 52 19 90 19 630 0 316 -2 586
-5 600 -2 14 -8 30 -14 36 -5 6 -17 21 -25 34 -25 36 -85 61 -142 59 -41 -2
-60 -10 -95 -36 -24 -18 -43 -29 -43 -23 0 19 -87 60 -127 60 -51 0 -104 -18
-121 -42 -16 -21 -38 -23 -49 -4 -17 29 -73 47 -134 44 -32 -1 -59 -6 -59 -10
0 -5 -6 -8 -14 -8 -7 0 -21 -11 -31 -24 -18 -24 -18 -24 -39 -4 -55 51 -145
64 -203 29z m122 -56 c26 -11 55 -43 57 -64 1 -9 2 -166 3 -350 2 -306 3 -335
20 -347 12 -9 22 -10 34 -3 14 10 16 47 16 361 0 319 2 351 18 362 9 7 15 15
12 17 -2 2 10 12 26 21 19 11 29 13 29 6 0 -9 3 -9 11 -1 29 29 110 -27 113
-80 1 -18 5 -37 8 -43 4 -5 3 -28 -2 -52 -4 -23 -4 -44 0 -47 5 -3 6 -44 0
-52 -4 -7 -3 -72 2 -85 3 -8 3 -33 -2 -56 -4 -24 -4 -44 0 -47 5 -3 6 -44 0
-52 -4 -7 -3 -72 2 -85 3 -8 3 -33 -2 -56 -4 -24 -4 -45 0 -47 5 -3 6 -14 3
-25 -10 -39 36 -63 58 -29 5 8 9 164 9 347 0 229 4 340 11 355 15 28 45 57 52
51 3 -3 14 -1 25 5 15 8 29 8 49 0 27 -10 67 -45 69 -61 1 -5 2 -9 4 -10 8
-11 6 -38 -3 -38 -8 0 -9 -3 -1 -8 7 -5 11 -107 11 -312 1 -168 2 -313 2 -322
1 -11 9 -18 20 -18 47 0 46 -10 45 356 -1 278 2 348 12 359 8 7 14 18 14 23 0
20 85 49 95 32 3 -5 11 -7 18 -5 14 5 47 -21 64 -52 8 -15 12 -171 11 -590 0
-513 -1 -574 -17 -620 -33 -99 -114 -177 -213 -207 -63 -19 -719 -16 -763 4
-16 7 -33 13 -37 12 -5 -1 -8 3 -8 8 0 6 -6 10 -14 10 -22 0 -103 87 -127 139
-19 39 -23 66 -26 176 -2 72 -3 144 -2 160 0 17 1 46 1 65 0 48 14 81 45 104
27 20 80 29 89 15 3 -5 9 -7 13 -4 12 7 61 -44 62 -64 1 -9 3 -86 4 -171 0
-86 5 -161 9 -168 12 -20 44 -14 52 11 10 30 11 328 2 334 -5 2 -8 12 -8 22 0
9 -10 28 -22 41 -13 14 -22 28 -21 31 1 4 -9 10 -22 13 -14 4 -25 11 -25 16 0
5 -8 7 -19 5 -18 -3 -18 9 -18 321 0 190 4 324 9 324 5 0 6 5 3 10 -3 6 -2 10
3 10 5 0 12 9 15 21 3 12 10 18 16 14 6 -3 11 -1 11 5 0 6 5 8 10 5 6 -3 10
-2 10 3 0 10 46 8 75 -3z"/>
</g>
</svg>
